<?xml version="1.0" encoding="UTF-8" standalone="no"?>
<!-- Generator: Adobe Illustrator 19.0.0, SVG Export Plug-In . SVG Version: 6.00 Build 0)  -->

<svg
   xmlns:dc="http://purl.org/dc/elements/1.1/"
   xmlns:cc="http://creativecommons.org/ns#"
   xmlns:rdf="http://www.w3.org/1999/02/22-rdf-syntax-ns#"
   xmlns:svg="http://www.w3.org/2000/svg"
   xmlns="http://www.w3.org/2000/svg"
   xmlns:sodipodi="http://sodipodi.sourceforge.net/DTD/sodipodi-0.dtd"
   xmlns:inkscape="http://www.inkscape.org/namespaces/inkscape"
   version="1.1"
   id="Capa_1"
   x="0px"
   y="0px"
   viewBox="0 0 11.862075 16"
   xml:space="preserve"
   sodipodi:docname="agenda_.svg"
   width="11.862075"
   height="16"
   inkscape:version="0.92.0 r15299"><metadata
     id="metadata122"><rdf:RDF><cc:Work
         rdf:about=""><dc:format>image/svg+xml</dc:format><dc:type
           rdf:resource="http://purl.org/dc/dcmitype/StillImage" /><dc:title></dc:title></cc:Work></rdf:RDF></metadata><defs
     id="defs120" /><sodipodi:namedview
     pagecolor="#ffffff"
     bordercolor="#666666"
     borderopacity="1"
     objecttolerance="10"
     gridtolerance="10"
     guidetolerance="10"
     inkscape:pageopacity="0"
     inkscape:pageshadow="2"
     inkscape:window-width="1920"
     inkscape:window-height="1017"
     id="namedview118"
     showgrid="false"
     inkscape:zoom="32.551724"
     inkscape:cx="4.9617471"
     inkscape:cy="9.1492994"
     inkscape:window-x="1358"
     inkscape:window-y="-8"
     inkscape:window-maximized="1"
     inkscape:current-layer="Capa_1" /><path
     style="fill:#ead8bb;stroke-width:0.27586207"
     d="M 1.2413793,0 C 0.6052414,0 0.0775172,0.484966 0.0082759,1.103448 L 0,1.37931 C 0,1.986207 0.4965517,2.482759 1.1034483,2.482759 H 1.3793103 2.2068966 2.758621 L 3.310345,1.37931 H 6.62069 L 6.079724,2.460966 c -0.005,0.01021 0.0025,0.02179 0.01352,0.02179 h 0.05821 5.710621 V 0 Z"
     id="path73"
     inkscape:connector-curvature="0" /><path
     style="fill:#6b4842;stroke-width:0.27586207"
     d="m 6.068966,2.482759 v 7.227862 c 0,0.13931 -0.183449,0.190345 -0.255173,0.07062 l -1.4,-2.332965 -1.4,2.333241 C 2.942073,9.900966 2.758621,9.850207 2.758621,9.710897 V 2.482759 H 1.1034483 C 0.4965517,2.482759 0,1.986207 0,1.37931 V 14.884966 C 0,15.50069 0.4993103,16 1.1150345,16 H 11.862069 V 2.482759 Z"
     id="path75"
     inkscape:connector-curvature="0" /><path
     style="fill:#513531;stroke-width:0.27586207"
     d="M 1.3793103,2.482759 H 1.1034483 C 0.4965517,2.482759 0,1.986207 0,1.37931 V 14.884966 C 0,15.50069 0.4993103,16 1.1150345,16 h 0.2642758 z"
     id="path77"
     inkscape:connector-curvature="0" /><path
     style="fill:#d3bea1;stroke-width:0.27586207"
     d="M 11.862069,0.551724 H 9.37931 c -0.152551,0 -0.275862,0.12331 -0.275862,0.275862 0,0.152552 0.123311,0.275862 0.275862,0.275862 h 2.482759 z"
     id="path79"
     inkscape:connector-curvature="0" /><path
     style="fill:#d3bea1;stroke-width:0.27586207"
     d="M 11.862069,1.37931 H 9.655172 c -0.152551,0 -0.275862,0.123311 -0.275862,0.275862 0,0.152552 0.123311,0.275862 0.275862,0.275862 h 2.206897 z"
     id="path81"
     inkscape:connector-curvature="0" /><path
     style="fill:#dd352e;stroke-width:0.27586207"
     d="M 3.310345,1.37931 2.758621,2.482759 v 7.227862 c 0,0.13931 0.183724,0.190345 0.255172,0.07062 l 1.4,-2.332965 1.4,2.333241 c 0.07172,0.119449 0.255173,0.06869 0.255173,-0.07062 V 2.482759 L 6.62069,1.37931 Z"
     id="path83"
     inkscape:connector-curvature="0" /><polygon
     style="fill:#b02721"
     points="31.5,5 19.5,5 17.5,9 29.5,9 "
     id="polygon85"
     transform="matrix(0.27586207,0,0,0.27586207,-2.0689655,0)" /><g
     id="g87"
     transform="matrix(0.27586207,0,0,0.27586207,-2.0689655,0)" /><g
     id="g89"
     transform="matrix(0.27586207,0,0,0.27586207,-2.0689655,0)" /><g
     id="g91"
     transform="matrix(0.27586207,0,0,0.27586207,-2.0689655,0)" /><g
     id="g93"
     transform="matrix(0.27586207,0,0,0.27586207,-2.0689655,0)" /><g
     id="g95"
     transform="matrix(0.27586207,0,0,0.27586207,-2.0689655,0)" /><g
     id="g97"
     transform="matrix(0.27586207,0,0,0.27586207,-2.0689655,0)" /><g
     id="g99"
     transform="matrix(0.27586207,0,0,0.27586207,-2.0689655,0)" /><g
     id="g101"
     transform="matrix(0.27586207,0,0,0.27586207,-2.0689655,0)" /><g
     id="g103"
     transform="matrix(0.27586207,0,0,0.27586207,-2.0689655,0)" /><g
     id="g105"
     transform="matrix(0.27586207,0,0,0.27586207,-2.0689655,0)" /><g
     id="g107"
     transform="matrix(0.27586207,0,0,0.27586207,-2.0689655,0)" /><g
     id="g109"
     transform="matrix(0.27586207,0,0,0.27586207,-2.0689655,0)" /><g
     id="g111"
     transform="matrix(0.27586207,0,0,0.27586207,-2.0689655,0)" /><g
     id="g113"
     transform="matrix(0.27586207,0,0,0.27586207,-2.0689655,0)" /><g
     id="g115"
     transform="matrix(0.27586207,0,0,0.27586207,-2.0689655,0)" /></svg>